<svg width="152" height="164" viewBox="0 0 152 164" fill="none" xmlns="http://www.w3.org/2000/svg">
  <style>
		path {
			fill: #d8b4fe;
		}
		@media ( prefers-color-scheme: dark ) {
			path {
				fill: #fff;
			}
		}
	</style>
  <g clip-path="url(#clip0_3_2)">
    <path d="M57 2.641C57.9273 3.76782 58.4954 5.14683 58.6309 6.59986C58.7664 8.05289 58.463 9.51317 57.76 10.792C52.2677 20.876 49.3994 32.1793 49.419 43.662C49.419 81.8615 80.56 112.793 118.94 112.793C123.947 112.793 128.82 112.271 133.504 111.274C134.939 110.963 136.435 111.082 137.803 111.615C139.172 112.149 140.353 113.075 141.198 114.276C142.091 115.524 142.547 117.033 142.493 118.567C142.44 120.102 141.881 121.575 140.904 122.759C133.453 131.912 124.053 139.286 113.39 144.345C102.727 149.403 91.07 152.019 79.268 152C35.473 152 0 116.717 0 73.245C0 40.527 20.083 12.464 48.678 0.569998C50.1024 -0.0319998 51.6837 -0.155557 53.1843 0.217886C54.6849 0.59133 56.0239 1.44161 57 2.641V2.641Z" fill="white" />
    <path d="M102.543 29.906C102.679 29.4946 102.942 29.1366 103.293 28.8828C103.644 28.6291 104.067 28.4925 104.5 28.4925C104.933 28.4925 105.356 28.6291 105.707 28.8828C106.058 29.1366 106.321 29.4946 106.457 29.906L110.134 40.945C111.777 45.866 115.634 49.723 120.555 51.3665L131.594 55.043C132.005 55.1792 132.363 55.4416 132.617 55.793C132.871 56.1443 133.007 56.5666 133.007 57C133.007 57.4334 132.871 57.8557 132.617 58.207C132.363 58.5584 132.005 58.8208 131.594 58.957L120.555 62.6335C118.128 63.4421 115.923 64.8049 114.114 66.6138C112.305 68.4227 110.942 70.628 110.134 73.055L106.457 84.094C106.321 84.5054 106.058 84.8634 105.707 85.1172C105.356 85.3709 104.933 85.5075 104.5 85.5075C104.067 85.5075 103.644 85.3709 103.293 85.1172C102.942 84.8634 102.679 84.5054 102.543 84.094L98.8665 73.055C98.0579 70.628 96.6952 68.4227 94.8863 66.6138C93.0774 64.8049 90.872 63.4421 88.445 62.6335L77.406 58.957C76.9946 58.8208 76.6366 58.5584 76.3829 58.207C76.1291 57.8557 75.9926 57.4334 75.9926 57C75.9926 56.5666 76.1291 56.1443 76.3829 55.793C76.6366 55.4416 76.9946 55.1792 77.406 55.043L88.445 51.3665C90.872 50.5579 93.0774 49.1951 94.8863 47.3862C96.6952 45.5773 98.0579 43.372 98.8665 40.945L102.543 29.906V29.906ZM131.699 0.940496C131.792 0.669996 131.968 0.435438 132.201 0.269431C132.435 0.103425 132.714 0.0142212 133 0.0142212C133.286 0.0142212 133.565 0.103425 133.799 0.269431C134.032 0.435438 134.208 0.669996 134.302 0.940496L136.753 8.2935C137.845 11.5805 140.42 14.155 143.707 15.2475L151.06 17.6985C151.33 17.7923 151.565 17.968 151.731 18.2013C151.897 18.4345 151.986 18.7137 151.986 19C151.986 19.2863 151.897 19.5655 151.731 19.7987C151.565 20.032 151.33 20.2077 151.06 20.3015L143.707 22.7525C142.087 23.2914 140.615 24.2005 139.408 25.4076C138.2 26.6147 137.291 28.0866 136.753 29.7065L134.302 37.0595C134.208 37.33 134.032 37.5646 133.799 37.7306C133.565 37.8966 133.286 37.9858 133 37.9858C132.714 37.9858 132.435 37.8966 132.201 37.7306C131.968 37.5646 131.792 37.33 131.699 37.0595L129.248 29.7065C128.709 28.0866 127.8 26.6147 126.592 25.4076C125.385 24.2005 123.913 23.2914 122.294 22.7525L114.941 20.3015C114.67 20.2077 114.435 20.032 114.269 19.7987C114.103 19.5655 114.014 19.2863 114.014 19C114.014 18.7137 114.103 18.4345 114.269 18.2013C114.435 17.968 114.67 17.7923 114.941 17.6985L122.294 15.2475C125.581 14.155 128.155 11.5805 129.248 8.2935L131.699 0.949996V0.940496Z" fill="white" />
  </g>
  <defs>
    <clipPath id="clip0_3_2">
      <rect width="152" height="152" fill="white" />
    </clipPath>
  </defs>
</svg>